<?xml version="1.0" encoding="utf-8"?><svg xmlns="http://www.w3.org/2000/svg" xmlns:xlink="http://www.w3.org/1999/xlink"><symbol viewBox="0 0 28 28" id="arrow-top-right" xmlns="http://www.w3.org/2000/svg">
    <path fill-rule="evenodd" clip-rule="evenodd" d="M9.625 4.375L22.75 4.375C22.9821 4.375 23.2046 4.46719 23.3687 4.63128C23.5328 4.79538 23.625 5.01794 23.625 5.25V18.375C23.625 18.8582 23.2332 19.25 22.75 19.25C22.2668 19.25 21.875 18.8582 21.875 18.375V7.36244L5.86872 23.3687C5.52701 23.7104 4.97299 23.7104 4.63128 23.3687C4.28957 23.027 4.28957 22.473 4.63128 22.1313L20.6376 6.125L9.625 6.125C9.14175 6.125 8.75 5.73325 8.75 5.25C8.75 4.76675 9.14175 4.375 9.625 4.375Z"/>
</symbol><symbol viewBox="0 0 24 24" id="facebook" xmlns="http://www.w3.org/2000/svg">
    <path d="M15.1194 5.32003H16.9994V2.14003C16.0891 2.04538 15.1745 1.99865 14.2594 2.00003C11.5394 2.00003 9.67938 3.66003 9.67938 6.70003V9.32003H6.60938V12.88H9.67938V22H13.3594V12.88H16.4194L16.8794 9.32003H13.3594V7.05003C13.3594 6.00003 13.6394 5.32003 15.1194 5.32003Z"/>
</symbol><symbol viewBox="0 0 24 24" id="linkedin" xmlns="http://www.w3.org/2000/svg">
    <path d="M22.2234 0H1.77187C0.792187 0 0 0.773438 0 1.72969V22.2656C0 23.2219 0.792187 24 1.77187 24H22.2234C23.2031 24 24 23.2219 24 22.2703V1.72969C24 0.773438 23.2031 0 22.2234 0ZM7.12031 20.4516H3.55781V8.99531H7.12031V20.4516ZM5.33906 7.43438C4.19531 7.43438 3.27188 6.51094 3.27188 5.37187C3.27188 4.23281 4.19531 3.30937 5.33906 3.30937C6.47813 3.30937 7.40156 4.23281 7.40156 5.37187C7.40156 6.50625 6.47813 7.43438 5.33906 7.43438ZM20.4516 20.4516H16.8937V14.8828C16.8937 13.5562 16.8703 11.8453 15.0422 11.8453C13.1906 11.8453 12.9094 13.2937 12.9094 14.7891V20.4516H9.35625V8.99531H12.7687V10.5609H12.8156C13.2891 9.66094 14.4516 8.70938 16.1813 8.70938C19.7859 8.70938 20.4516 11.0813 20.4516 14.1656V20.4516Z"/>
</symbol><symbol viewBox="0 0 24 24" id="twitter" xmlns="http://www.w3.org/2000/svg">
    <path d="M22 5.79997C21.2483 6.12606 20.4534 6.34163 19.64 6.43997C20.4982 5.92729 21.1413 5.12075 21.45 4.16997C20.6436 4.65003 19.7608 4.98826 18.84 5.16997C18.2245 4.50254 17.405 4.05826 16.5098 3.90682C15.6147 3.75537 14.6945 3.90532 13.8938 4.33315C13.093 4.76099 12.4569 5.4425 12.0852 6.2708C11.7135 7.09911 11.6273 8.02735 11.84 8.90996C10.2094 8.82749 8.61444 8.40292 7.15866 7.66383C5.70287 6.92474 4.41885 5.88766 3.39 4.61997C3.02914 5.25013 2.83952 5.96379 2.84 6.68997C2.83872 7.36435 3.00422 8.02858 3.32176 8.62353C3.63929 9.21848 4.09902 9.72568 4.66 10.1C4.00798 10.0822 3.36989 9.90726 2.8 9.58996V9.63997C2.80489 10.5849 3.13599 11.4991 3.73731 12.2279C4.33864 12.9568 5.17326 13.4556 6.1 13.64C5.74326 13.7485 5.37288 13.8058 5 13.81C4.74189 13.8069 4.48442 13.7835 4.23 13.74C4.49391 14.5528 5.00462 15.2631 5.69108 15.7721C6.37753 16.2811 7.20558 16.5635 8.06 16.58C6.6172 17.7152 4.83588 18.3348 3 18.34C2.66574 18.3411 2.33174 18.321 2 18.28C3.87443 19.4902 6.05881 20.1327 8.29 20.13C9.82969 20.146 11.3571 19.855 12.7831 19.274C14.2091 18.6931 15.505 17.8338 16.5952 16.7465C17.6854 15.6591 18.548 14.3654 19.1326 12.9409C19.7172 11.5164 20.012 9.98969 20 8.44996C20 8.27996 20 8.09996 20 7.91996C20.7847 7.33478 21.4615 6.61739 22 5.79997Z"/>
</symbol></svg>