<svg width="68" height="78" viewBox="0 0 68 78" fill="none" xmlns="http://www.w3.org/2000/svg">
<rect x="12" y="13.5" width="52" height="52" rx="26" fill="#CE7D63"/>
<path d="M39.5 32L47 39.5M47 39.5L39.5 47M47 39.5H29" stroke="#0F0F0F" stroke-width="1.5" stroke-linecap="round" stroke-linejoin="round"/>
<path d="M67.666 64.1316C62.5222 70.1011 55.6705 74.3485 48.036 76.3003C40.4015 78.2521 32.352 77.8143 24.9743 75.0459C17.5966 72.2775 11.2461 67.312 6.7801 60.8197C2.31415 54.3274 -0.0520899 46.6211 0.000869498 38.7413C0.0538289 30.8614 2.52344 23.1876 7.07625 16.7559C11.6291 10.3243 18.0458 5.44453 25.46 2.77557C32.8743 0.106609 40.929 -0.223011 48.5365 1.83121C56.144 3.88544 62.938 8.22457 68.0011 14.2627L66.6852 15.3662C61.8479 9.59737 55.357 5.45179 48.0888 3.4892C40.8206 1.52661 33.1252 1.84153 26.0417 4.39143C18.9582 6.94133 12.8277 11.6034 8.47797 17.7482C4.12825 23.893 1.7688 31.2245 1.7182 38.7528C1.6676 46.2811 3.9283 53.6437 8.19503 59.8464C12.4618 66.049 18.5291 70.7931 25.5777 73.438C32.6263 76.0829 40.3167 76.5012 47.6106 74.6365C54.9045 72.7718 61.4506 68.7138 66.365 63.0105L67.666 64.1316Z" fill="#CE7D63"/>
</svg>
