<svg width="28" height="29" viewBox="0 0 28 29" fill="none" xmlns="http://www.w3.org/2000/svg">
<path d="M8.16699 6.13423C8.16699 7.93998 10.1806 9.84219 11.8417 11.1042C12.774 11.8125 13.2401 12.1666 14.0003 12.1666C14.7605 12.1666 15.2267 11.8125 16.159 11.1042C17.8201 9.84221 19.8337 7.94001 19.8337 6.13422C19.8337 2.87902 16.6252 1.66369 14.0003 4.1783C11.3754 1.66369 8.16699 2.87902 8.16699 6.13423Z" fill="#CE7D63"/>
<path d="M7.30358 25.4531H7.00033C5.90038 25.4531 5.35041 25.4531 5.0087 25.1114C4.66699 24.7697 4.66699 24.2197 4.66699 23.1198V21.8225C4.66699 21.2176 4.66699 20.9151 4.82237 20.645C4.97774 20.3749 5.21214 20.2386 5.68094 19.9659C8.76733 18.1708 13.1505 17.1604 16.0759 18.9052C16.2725 19.0224 16.4492 19.164 16.6003 19.3336C17.2514 20.065 17.2039 21.1688 16.4535 21.8237C16.2951 21.9621 16.1262 22.0669 15.9561 22.1034C16.0959 22.0872 16.2298 22.0686 16.3577 22.0482C17.421 21.8786 18.3135 21.3104 19.1307 20.6932L21.239 19.1005C21.9823 18.539 23.0855 18.5389 23.8289 19.1002C24.4982 19.6056 24.7029 20.4376 24.2797 21.1159C23.7863 21.9068 23.0911 22.9186 22.4236 23.5369C21.7551 24.156 20.7599 24.7088 19.9474 25.101C19.0474 25.5354 18.0531 25.7857 17.0418 25.9494C14.9906 26.2814 12.853 26.2307 10.8227 25.8124C9.67495 25.576 8.48292 25.4531 7.30358 25.4531Z" fill="#CE7D63"/>
</svg>
